<svg width="130" height="16" fill="none" xmlns="http://www.w3.org/2000/svg"><g clip-path="url('#clip0_35_8')" fill="#E7E7E7"><path d="M105.309 2.524h22.474l2.218-2.518H97.817l-8.93 15.223h20.857l1.498-2.517H99.316l2.277-3.836h11.926l1.439-2.517h-11.867l2.218-3.835Zm-17.2 3.835h-8.87l1.438-2.457c.6-1.019 1.139-1.378 2.038-1.378.899 0 1.198.719.719 1.618h9.05l.899-1.618c.659-1.2.659-2.518-.96-2.518H76.483c-1.438 0-2.577.18-3.416 1.559l-2.817 4.794c-.78 1.379-.72 2.517 1.199 2.517h9.169l-1.498 2.637c-.42.72-.96 1.199-2.218 1.199-1.078 0-1.019-.72-.54-1.438h-8.989l-1.079 1.797c-.659 1.14-.12 2.158 1.439 2.158h15.822c1.438 0 2.696-.66 3.416-1.858l2.697-4.495c.6-1.138.3-2.517-1.558-2.517Z"/><path d="M126.611 2.967c-.731 0-1.324.575-1.324 1.277 0 .717.593 1.292 1.324 1.292.728 0 1.318-.575 1.318-1.292 0-.702-.59-1.277-1.318-1.277Zm0 2.318c-.597 0-1.073-.455-1.073-1.04 0-.568.476-1.027 1.073-1.027.59 0 1.067.459 1.067 1.026 0 .586-.477 1.041-1.067 1.041ZM67.671.006H54.127c-1.858 0-4.255 0-5.694 2.518L42.44 12.712c-.839 1.378-.12 2.517 1.438 2.517H59.64c1.619 0 2.637-.48 3.896-2.517l5.993-10.188c.78-1.319-.42-2.518-1.858-2.518ZM60.06 3.902l-4.495 7.611c-.6 1.08-1.139 1.199-2.517 1.199-1.379 0-1.738-.48-1.319-1.199l4.555-7.611c.66-1.139 1.438-1.378 2.577-1.378 1.14 0 1.798.36 1.199 1.378ZM43.938.006h-17.38l-7.491 12.706H2.526L0 15.229h35.908c2.217 0 2.936-1.079 3.416-1.918l1.798-3.116c.479-.84.479-1.798-.48-2.338.96 0 2.277-.659 3.057-2.037l1.798-3.057c.898-1.498-.18-2.757-1.559-2.757Zm-8.93 10.249-.898 1.438c-.24.48-.66 1.019-1.678 1.019h-4.435l2.278-3.836h4.314c.78 0 .78.72.42 1.379Zm3.776-6.353-.899 1.438c-.24.48-.659 1.02-1.678 1.02h-4.435l2.278-3.836h4.315c.779 0 .779.719.42 1.378Z"/><path d="M127.288 3.91a.354.354 0 0 0-.164-.31.724.724 0 0 0-.36-.069h-.645V4.97h.219v-.663h.259l.422.663h.251l-.448-.663c.262-.007.466-.112.466-.396Zm-.71.218h-.24v-.433h.382c.186 0 .349.025.349.211 0 .259-.283.222-.491.222Z"/></g><defs><clipPath id="clip0_35_8"><path fill="#fff" d="M0 0h130v15.236H0z"/></clipPath></defs></svg>