<svg aria-hidden="true" style="width:0;height:0;position:absolute;overflow:hidden" xmlns="http://www.w3.org/2000/svg"><defs><symbol id="icon-question-mark" viewBox="0 0 16 32"><path fill="#e7e7e7" style="fill:var(--color1,#e7e7e7)" d="M6.133 21.992c0-1.563.163-2.832.488-3.809s1.12-2.22 2.383-3.73l1.367-1.758c.911-1.276 1.367-2.604 1.367-3.984 0-1.367-.286-2.435-.859-3.203-.56-.781-1.367-1.172-2.422-1.172-.99 0-1.816.352-2.48 1.055C5.326 6.094 5 7.038 5 8.223H1.562c.026-2.148.677-3.861 1.953-5.137s2.923-1.914 4.941-1.914c2.096 0 3.743.658 4.941 1.973s1.797 3.131 1.797 5.449c0 2.214-.905 4.434-2.715 6.66l-1.797 2.168C9.94 18.477 9.569 20 9.569 21.992H6.131zm1.875 4.121c.651 0 1.139.202 1.465.606.339.391.508.879.508 1.465s-.169 1.074-.508 1.465c-.326.378-.814.566-1.465.566-.664 0-1.159-.189-1.484-.566-.313-.391-.469-.879-.469-1.465s.156-1.074.469-1.465c.326-.404.82-.606 1.484-.606z"/></symbol></defs></svg>