<svg aria-hidden="true" style="width:0;height:0;position:absolute;overflow:hidden" xmlns="http://www.w3.org/2000/svg"><defs><symbol id="icon-comas" viewBox="0 0 44 32"><path d="M0 15.411V0h17.875v11.603C17.875 23.69 11.917 30.489 0 32v-6.346c3.01-.786 5.068-1.934 6.173-3.445 1.167-1.511 1.874-3.777 2.119-6.799H-.001zM25.645 15.411V0H43.52v11.603c0 12.087-5.958 18.886-17.875 20.397v-6.346c3.01-.786 5.068-1.934 6.173-3.445 1.167-1.511 1.874-3.777 2.119-6.799h-8.293z"/></symbol><symbol id="icon-cirlcle" viewBox="0 0 32 32"><path d="M32 16c0 8.837-7.163 16-16 16S0 24.837 0 16 7.163 0 16 0s16 7.163 16 16z"/></symbol><symbol id="icon-wave" viewBox="0 0 74 32"><path d="M1.345 31.77c-.42.113-.869.083-1.345-.096l.131-.347c.414.156.783.175 1.117.085.336-.091.654-.296.956-.614.61-.642 1.134-1.717 1.602-3.117.832-2.485 1.464-5.909 2.13-9.514l.25-1.351c.76-4.079 1.597-8.263 2.844-11.427.623-1.583 1.355-2.925 2.24-3.873.889-.953 1.941-1.515 3.193-1.515 1.13 0 2.118.523 2.985 1.407.864.882 1.618 2.133 2.29 3.617 1.344 2.967 2.382 6.916 3.315 10.846.224.945.443 1.89.658 2.82.681 2.945 1.328 5.745 2.031 7.98.463 1.471.945 2.681 1.469 3.521.369.591.742.973 1.123 1.149l.005-.014c.414.156.783.175 1.117.085.336-.091.654-.296.956-.614.61-.642 1.134-1.717 1.603-3.117.832-2.485 1.464-5.909 2.13-9.514l.25-1.351c.759-4.079 1.597-8.263 2.844-11.427.623-1.583 1.355-2.925 2.241-3.873.889-.953 1.941-1.515 3.193-1.515 1.131 0 2.116.523 2.979 1.408.861.882 1.609 2.133 2.275 3.617 1.332 2.968 2.355 6.916 3.273 10.847.22.944.435 1.886.645 2.814l.001.003.001.003c.669 2.945 1.306 5.746 2 7.981.457 1.471.934 2.681 1.455 3.521.367.591.738.972 1.118 1.149l.006-.015c.414.156.785.175 1.125.085.341-.091.666-.297.977-.616.627-.643 1.174-1.719 1.67-3.118.885-2.494 1.585-5.935 2.32-9.554l.003-.014.264-1.297c.835-4.079 1.748-8.263 3.052-11.427.652-1.582 1.407-2.924 2.309-3.872.905-.952 1.966-1.513 3.218-1.513 1.13 0 2.118.523 2.984 1.407.864.882 1.618 2.133 2.29 3.617 1.344 2.967 2.382 6.916 3.315 10.847.224.945.443 1.89.657 2.82.681 2.945 1.328 5.745 2.031 7.98.463 1.471.945 2.681 1.469 3.521.529.848 1.067 1.264 1.624 1.264v.371c-.761 0-1.395-.567-1.939-1.439-.549-.881-1.043-2.127-1.508-3.606-.708-2.25-1.36-5.071-2.041-8.02l-.001-.003c-.214-.926-.431-1.865-.653-2.802-.934-3.933-1.965-7.848-3.293-10.779-.663-1.465-1.395-2.672-2.216-3.51C73.264.835 72.367.375 71.364.375c-1.126 0-2.095.501-2.949 1.398-.857.901-1.591 2.194-2.235 3.757-1.288 3.126-2.195 7.275-3.032 11.36l-.267 1.314c-.734 3.612-1.439 7.081-2.334 9.602-.501 1.411-1.069 2.55-1.754 3.253-.345.354-.725.603-1.147.716a2 2 0 0 1-.725.055v.002c-.761 0-1.393-.567-1.934-1.439-.546-.881-1.035-2.128-1.494-3.606-.699-2.25-1.34-5.071-2.01-8.02-.211-.927-.424-1.867-.643-2.806-.918-3.933-1.935-7.849-3.25-10.78-.658-1.465-1.385-2.672-2.203-3.51-.815-.835-1.71-1.296-2.713-1.296-1.126 0-2.085.501-2.922 1.397-.84.9-1.551 2.193-2.167 3.756-1.231 3.126-2.064 7.274-2.824 11.359l-.251 1.353c-.664 3.598-1.302 7.05-2.143 9.562-.472 1.411-1.017 2.551-1.685 3.255-.337.354-.711.604-1.129.717a1.98 1.98 0 0 1-.718.056v.001c-.761 0-1.395-.567-1.939-1.439-.549-.881-1.043-2.127-1.508-3.606-.708-2.25-1.36-5.071-2.041-8.02-.214-.927-.431-1.867-.654-2.805-.934-3.933-1.965-7.848-3.292-10.779-.663-1.465-1.396-2.672-2.216-3.51C16.367.836 15.469.376 14.466.376c-1.126 0-2.085.501-2.922 1.397-.84.9-1.551 2.193-2.166 3.756-1.232 3.126-2.064 7.274-2.825 11.359l-.25 1.353c-.664 3.598-1.302 7.05-2.143 9.562-.472 1.411-1.017 2.551-1.685 3.255-.337.354-.711.604-1.129.717z"/></symbol><symbol id="icon-arrow" viewBox="0 0 31 32"><path stroke-width="2.783" d="M1.391 29.783 29.217 1.957m0 0H1.391m27.826 0v27.826"/></symbol></defs></svg>