<svg width="130" height="16" viewBox="0 0 130 16" fill="none" xmlns="http://www.w3.org/2000/svg">
<g clip-path="url(#clip0_35_8)">
<path d="M105.309 2.52351H127.783L130.001 0.00634766H97.8175L88.8877 15.2289H109.744L111.242 12.7118H99.3158L101.593 8.8763H113.519L114.958 6.35915H103.091L105.309 2.52351ZM88.1086 6.35915H79.2387L80.677 3.90199C81.2764 2.88313 81.8157 2.52351 82.7147 2.52351C83.6138 2.52351 83.9132 3.24275 83.434 4.1418H92.4835L93.3826 2.52351C94.0418 1.32483 94.0418 0.00634766 92.4237 0.00634766H76.4819C75.0436 0.00634766 73.9048 0.186158 73.0657 1.56464L70.2489 6.35915C69.4699 7.73763 69.5299 8.8763 71.4476 8.8763H80.617L79.1187 11.5133C78.6993 12.2325 78.1596 12.7118 76.9013 12.7118C75.8225 12.7118 75.8825 11.9925 76.3619 11.2735H67.3721L66.2933 13.0714C65.6342 14.2101 66.1735 15.2289 67.7316 15.2289H83.5536C84.9919 15.2289 86.2503 14.5697 86.9698 13.371L89.6666 8.8763C90.2662 7.73763 89.9664 6.35915 88.1086 6.35915Z" fill="#E7E7E7"/>
<path d="M126.611 2.96701C125.88 2.96701 125.287 3.54199 125.287 4.24441C125.287 4.96136 125.88 5.53634 126.611 5.53634C127.339 5.53634 127.929 4.96136 127.929 4.24441C127.929 3.54199 127.339 2.96701 126.611 2.96701ZM126.611 5.28525C126.014 5.28525 125.538 4.83028 125.538 4.24441C125.538 3.6767 126.014 3.2181 126.611 3.2181C127.201 3.2181 127.678 3.6767 127.678 4.24441C127.678 4.83028 127.201 5.28525 126.611 5.28525ZM67.6713 0.00634766H54.1268C52.2689 0.00634766 49.8716 0.00634766 48.4333 2.52351L42.4401 12.7118C41.601 14.0902 42.3203 15.2289 43.8784 15.2289H59.6404C61.2587 15.2289 62.2773 14.7495 63.536 12.7118L69.5292 2.52351C70.3081 1.20502 69.1096 0.00634766 67.6713 0.00634766ZM60.06 3.90199L55.5651 11.5133C54.9657 12.5921 54.4264 12.7118 53.048 12.7118C51.6695 12.7118 51.3098 12.2323 51.7295 11.5133L56.2842 3.90199C56.9434 2.76332 57.7225 2.52351 58.8611 2.52351C60.0002 2.52351 60.6592 2.88313 60.06 3.90199ZM43.9384 0.00634766H26.5581L19.0668 12.7118H2.52576L0 15.2289H35.9077C38.125 15.2289 38.8443 14.15 39.3237 13.3112L41.1216 10.1946C41.601 9.35555 41.601 8.39668 40.6422 7.85744C41.6029 7.85744 42.9195 7.1982 43.6988 5.81972L45.4967 2.76332C46.3955 1.26483 45.3169 0.00634766 43.9384 0.00634766ZM35.0086 10.2546L34.1096 11.6929C33.8699 12.1725 33.4503 12.7118 32.4315 12.7118H27.9966L30.2754 8.8763H34.5892C35.3682 8.8763 35.3682 9.59555 35.0086 10.2546ZM38.7843 3.90199L37.8852 5.34028C37.6454 5.81972 37.226 6.35915 36.2071 6.35915H31.7722L34.0496 2.52351H38.3646C39.1439 2.52351 39.1439 3.24275 38.7843 3.90199Z" fill="#E7E7E7"/>
<path d="M127.288 3.90979C127.288 3.78979 127.233 3.66233 127.124 3.60042C127.011 3.53851 126.888 3.53125 126.764 3.53125H126.119V4.96878H126.338V4.30648H126.597L127.019 4.96878H127.27L126.822 4.30648C127.084 4.29922 127.288 4.19355 127.288 3.90979ZM126.578 4.12801H126.338V3.69482H126.72C126.906 3.69482 127.069 3.72023 127.069 3.90597C127.069 4.16451 126.786 4.12801 126.578 4.12801Z" fill="#E7E7E7"/>
</g>
<defs>
<clipPath id="clip0_35_8">
<rect width="130" height="15.236" fill="white" transform="translate(0 -0.000488281)"/>
</clipPath>
</defs>
</svg>
