<svg aria-hidden="true" style="position: absolute; width: 0; height: 0; overflow: hidden;" version="1.1" xmlns="http://www.w3.org/2000/svg" xmlns:xlink="http://www.w3.org/1999/xlink">
<defs>
<symbol id="icon-question-mark" viewBox="0 0 16 32">
<path fill="#e7e7e7" style="fill: var(--color1, #e7e7e7)" d="M6.133 21.992c0-1.563 0.163-2.832 0.488-3.809s1.12-2.22 2.383-3.73l1.367-1.758c0.911-1.276 1.367-2.604 1.367-3.984 0-1.367-0.286-2.435-0.859-3.203-0.56-0.781-1.367-1.172-2.422-1.172-0.99 0-1.816 0.352-2.48 1.055-0.651 0.703-0.977 1.647-0.977 2.832h-3.438c0.026-2.148 0.677-3.861 1.953-5.137s2.923-1.914 4.941-1.914c2.096 0 3.743 0.658 4.941 1.973s1.797 3.131 1.797 5.449c0 2.214-0.905 4.434-2.715 6.66l-1.797 2.168c-0.742 1.055-1.113 2.578-1.113 4.57h-3.438zM8.008 26.113c0.651 0 1.139 0.202 1.465 0.606 0.339 0.391 0.508 0.879 0.508 1.465s-0.169 1.074-0.508 1.465c-0.326 0.378-0.814 0.566-1.465 0.566-0.664 0-1.159-0.189-1.484-0.566-0.313-0.391-0.469-0.879-0.469-1.465s0.156-1.074 0.469-1.465c0.326-0.404 0.82-0.606 1.484-0.606z"></path>
</symbol>
</defs>
</svg>
